<svg width="217" height="59" viewBox="0 0 217 59" fill="none" xmlns="http://www.w3.org/2000/svg">
<path d="M29.4607 0C13.1883 0 0 13.1914 0 29.4607C0 45.7331 13.1883 58.9213 29.4607 58.9213C45.7299 58.9213 58.9213 45.7331 58.9213 29.4607C58.9213 13.1914 45.7299 0 29.4607 0ZM38.4759 38.6818H20.4454C18.0572 38.6818 16.5647 36.0972 17.7572 34.0296L26.7756 18.4139C27.9681 16.3494 30.9517 16.3494 32.1442 18.4139L41.1595 34.0296C42.3535 36.0972 40.8625 38.6818 38.4759 38.6818Z" fill="white"/>
<path d="M69.0215 29.4929C69.0215 20.0565 74.7625 13.5237 84.1328 13.5237C92.3154 13.5237 97.5945 18.0109 98.3203 24.8077H92.5793C91.7875 20.7824 88.884 18.6708 84.0668 18.6708C78.2599 18.6708 74.6965 22.6961 74.6965 29.4929C74.6965 36.2237 78.2599 40.315 84.0668 40.315C88.884 40.315 91.7875 38.2033 92.5793 34.376H98.3203C97.5945 41.0408 92.3154 45.4621 84.1328 45.4621C74.7625 45.4621 69.0215 38.9292 69.0215 29.4929Z" fill="white"/>
<path d="M104.219 44.6704V14.2498H109.96V21.1785C111.147 16.0314 115.041 13.7878 118.868 13.7878C119.924 13.7878 120.914 13.8538 121.639 14.0518V19.3309C120.65 19.1329 119.858 19.1329 118.802 19.1329C112.797 19.1329 109.96 24.6099 109.96 31.4067V44.6704H104.219Z" fill="white"/>
<path d="M152.978 31.1429H129.42C129.552 37.0159 133.181 40.4473 138.988 40.4473C143.013 40.4473 145.785 38.8635 147.039 35.96H152.78C151.724 41.5691 146.115 45.4624 138.988 45.4624C129.618 45.4624 123.745 39.2595 123.745 29.4272C123.745 19.7929 129.684 13.458 138.724 13.458C147.303 13.458 153.11 19.397 153.11 27.7775C153.11 28.8993 153.11 29.7571 152.978 31.1429ZM147.501 26.7217C147.501 21.3766 144.201 18.0772 138.658 18.0772C133.115 18.0772 129.684 21.5746 129.42 26.7217H147.501Z" fill="white"/>
<path d="M156.949 35.5641H162.624C162.624 38.5336 165.396 40.8432 169.883 40.8432C173.248 40.8432 175.492 39.1935 175.492 36.488C175.492 34.4423 174.568 33.0566 170.939 32.1327L164.736 30.549C160.249 29.2952 157.873 26.3917 157.873 22.1685C157.873 17.0214 162.624 13.458 169.223 13.458C176.482 13.458 180.903 16.9554 180.903 22.6304H175.294C175.294 19.7269 172.984 17.8792 169.025 17.8792C165.858 17.8792 163.548 19.397 163.548 21.9045C163.548 23.8182 164.67 25.2039 167.969 26.1278L174.238 27.8435C178.725 29.0973 181.299 32.0667 181.299 36.29C181.299 42.097 176.746 45.4624 169.553 45.4624C162.096 45.4624 156.949 41.1731 156.949 35.5641Z" fill="white"/>
<path d="M185.224 29.4932C185.224 20.5848 191.163 13.458 201.061 13.458C210.894 13.458 216.899 20.5848 216.899 29.4932C216.899 38.3356 210.894 45.4624 201.061 45.4624C191.163 45.4624 185.224 38.3356 185.224 29.4932ZM211.158 29.4932C211.158 23.3563 207.462 18.6051 201.061 18.6051C194.66 18.6051 190.899 23.3563 190.899 29.4932C190.899 35.5641 194.66 40.3153 201.061 40.3153C207.462 40.3153 211.158 35.5641 211.158 29.4932Z" fill="white"/>
</svg>
